<?plantuml 1.2026.1?><svg xmlns="http://www.w3.org/2000/svg" xmlns:xlink="http://www.w3.org/1999/xlink" contentStyleType="text/css" data-diagram-type="SEQUENCE" height="991px" preserveAspectRatio="none" style="width:1570px;height:991px;background:#FFFFFF;" version="1.1" viewBox="0 0 1570 991" width="1570px" zoomAndPan="magnify"><defs/><g><g><title>. CourseSelectionPage</title><rect fill="#FFFFFF" height="788.7637" style="stroke:#181818;stroke-width:1;" width="10" x="298.813" y="112.7988"/></g><g><title>. CourseEnrollmentService</title><rect fill="#FFFFFF" height="759.4531" style="stroke:#181818;stroke-width:1;" width="10" x="830.5137" y="142.1094"/></g><g><title>. Student</title><rect fill="#FFFFFF" height="588.9004" style="stroke:#181818;stroke-width:1;" width="10" x="1265.7998" y="274.3516"/></g><g><title>. CoursePlan</title><rect fill="#FFFFFF" height="339.416" style="stroke:#181818;stroke-width:1;" width="10" x="1510.377" y="494.5254"/></g><rect fill="none" height="46.6211" style="stroke:#000000;stroke-width:1.5;" width="729.0762" x="212.0996" y="199.4199"/><rect fill="none" height="46.6211" style="stroke:#000000;stroke-width:1.5;" width="729.0762" x="212.0996" y="360.9727"/><rect fill="none" height="46.6211" style="stroke:#000000;stroke-width:1.5;" width="729.0762" x="212.0996" y="597.457"/><rect fill="none" height="46.6211" style="stroke:#000000;stroke-width:1.5;" width="729.0762" x="212.0996" y="700.3887"/><g class="participant-lifeline" data-entity-uid="part1" data-qualified-name="student" id="part1-lifeline"><g><title>Mahasiswa</title><rect fill="#000000" fill-opacity="0.00000" height="829.0742" width="8" x="40.5244" y="81.4883"/><line style="stroke:#181818;stroke-width:0.5;stroke-dasharray:5,5;" x1="44" x2="44" y1="81.4883" y2="910.5625"/></g></g><g class="participant-lifeline" data-entity-uid="part2" data-qualified-name="courseSelectionPage" id="part2-lifeline"><g><title>. CourseSelectionPage</title><rect fill="#000000" fill-opacity="0.00000" height="829.0742" width="8" x="299.813" y="81.4883"/><line style="stroke:#181818;stroke-width:0.5;stroke-dasharray:5,5;" x1="303.0996" x2="303.0996" y1="81.4883" y2="910.5625"/></g></g><g class="participant-lifeline" data-entity-uid="part3" data-qualified-name="courseEnrollmentService" id="part3-lifeline"><g><title>. CourseEnrollmentService</title><rect fill="#000000" fill-opacity="0.00000" height="829.0742" width="8" x="831.5137" y="81.4883"/><line style="stroke:#181818;stroke-width:0.5;stroke-dasharray:5,5;" x1="834.8516" x2="834.8516" y1="81.4883" y2="910.5625"/></g></g><g class="participant-lifeline" data-entity-uid="part4" data-qualified-name="studentEnt" id="part4-lifeline"><g><title>. Student</title><rect fill="#000000" fill-opacity="0.00000" height="829.0742" width="8" x="1266.7998" y="81.4883"/><line style="stroke:#181818;stroke-width:0.5;stroke-dasharray:5,5;" x1="1270.3696" x2="1270.3696" y1="81.4883" y2="910.5625"/></g></g><g class="participant-lifeline" data-entity-uid="part5" data-qualified-name="coursePlanEnt" id="part5-lifeline"><g><title>. CoursePlan</title><rect fill="#000000" fill-opacity="0.00000" height="829.0742" width="8" x="1511.377" y="81.4883"/><line style="stroke:#181818;stroke-width:0.5;stroke-dasharray:5,5;" x1="1515.0249" x2="1515.0249" y1="81.4883" y2="910.5625"/></g></g><g class="participant participant-head" data-entity-uid="part1" data-qualified-name="student" id="part1-head"><text fill="#000000" font-family="sans-serif" font-size="14" lengthAdjust="spacing" textLength="73.0488" x="5" y="78.5352">Mahasiswa</text><ellipse cx="44.5244" cy="13.5" fill="#E2E2F0" rx="8" ry="8" style="stroke:#181818;stroke-width:0.5;"/><path d="M44.5244,21.5 L44.5244,48.5 M31.5244,29.5 L57.5244,29.5 M44.5244,48.5 L31.5244,63.5 M44.5244,48.5 L57.5244,63.5" fill="none" style="stroke:#181818;stroke-width:0.5;"/></g><g class="participant participant-tail" data-entity-uid="part1" data-qualified-name="student" id="part1-tail"><text fill="#000000" font-family="sans-serif" font-size="14" lengthAdjust="spacing" textLength="73.0488" x="5" y="923.0977">Mahasiswa</text><ellipse cx="44.5244" cy="934.5508" fill="#E2E2F0" rx="8" ry="8" style="stroke:#181818;stroke-width:0.5;"/><path d="M44.5244,942.5508 L44.5244,969.5508 M31.5244,950.5508 L57.5244,950.5508 M44.5244,969.5508 L31.5244,984.5508 M44.5244,969.5508 L57.5244,984.5508" fill="none" style="stroke:#181818;stroke-width:0.5;"/></g><g class="participant participant-head" data-entity-uid="part2" data-qualified-name="courseSelectionPage" id="part2-head"><rect fill="#E2E2F0" height="30.4883" rx="2.5" ry="2.5" style="stroke:#181818;stroke-width:0.5;" width="163.4268" x="222.0996" y="50"/><text fill="#000000" font-family="sans-serif" font-size="14" lengthAdjust="spacing" textLength="149.4268" x="229.0996" y="70.5352">: CourseSelectionPage</text></g><g class="participant participant-tail" data-entity-uid="part2" data-qualified-name="courseSelectionPage" id="part2-tail"><rect fill="#E2E2F0" height="30.4883" rx="2.5" ry="2.5" style="stroke:#181818;stroke-width:0.5;" width="163.4268" x="222.0996" y="909.5625"/><text fill="#000000" font-family="sans-serif" font-size="14" lengthAdjust="spacing" textLength="149.4268" x="229.0996" y="930.0977">: CourseSelectionPage</text></g><g class="participant participant-head" data-entity-uid="part3" data-qualified-name="courseEnrollmentService" id="part3-head"><rect fill="#E2E2F0" height="30.4883" rx="2.5" ry="2.5" style="stroke:#181818;stroke-width:0.5;" width="191.3242" x="739.8516" y="50"/><text fill="#000000" font-family="sans-serif" font-size="14" lengthAdjust="spacing" textLength="177.3242" x="746.8516" y="70.5352">: CourseEnrollmentService</text></g><g class="participant participant-tail" data-entity-uid="part3" data-qualified-name="courseEnrollmentService" id="part3-tail"><rect fill="#E2E2F0" height="30.4883" rx="2.5" ry="2.5" style="stroke:#181818;stroke-width:0.5;" width="191.3242" x="739.8516" y="909.5625"/><text fill="#000000" font-family="sans-serif" font-size="14" lengthAdjust="spacing" textLength="177.3242" x="746.8516" y="930.0977">: CourseEnrollmentService</text></g><g class="participant participant-head" data-entity-uid="part4" data-qualified-name="studentEnt" id="part4-head"><rect fill="#E2E2F0" height="30.4883" rx="2.5" ry="2.5" style="stroke:#181818;stroke-width:0.5;" width="74.8604" x="1233.3696" y="50"/><text fill="#000000" font-family="sans-serif" font-size="14" lengthAdjust="spacing" textLength="60.8604" x="1240.3696" y="70.5352">: Student</text></g><g class="participant participant-tail" data-entity-uid="part4" data-qualified-name="studentEnt" id="part4-tail"><rect fill="#E2E2F0" height="30.4883" rx="2.5" ry="2.5" style="stroke:#181818;stroke-width:0.5;" width="74.8604" x="1233.3696" y="909.5625"/><text fill="#000000" font-family="sans-serif" font-size="14" lengthAdjust="spacing" textLength="60.8604" x="1240.3696" y="930.0977">: Student</text></g><g class="participant participant-head" data-entity-uid="part5" data-qualified-name="coursePlanEnt" id="part5-head"><rect fill="#E2E2F0" height="30.4883" rx="2.5" ry="2.5" style="stroke:#181818;stroke-width:0.5;" width="98.7041" x="1466.0249" y="50"/><text fill="#000000" font-family="sans-serif" font-size="14" lengthAdjust="spacing" textLength="84.7041" x="1473.0249" y="70.5352">: CoursePlan</text></g><g class="participant participant-tail" data-entity-uid="part5" data-qualified-name="coursePlanEnt" id="part5-tail"><rect fill="#E2E2F0" height="30.4883" rx="2.5" ry="2.5" style="stroke:#181818;stroke-width:0.5;" width="98.7041" x="1466.0249" y="909.5625"/><text fill="#000000" font-family="sans-serif" font-size="14" lengthAdjust="spacing" textLength="84.7041" x="1473.0249" y="930.0977">: CoursePlan</text></g><g><title>. CourseSelectionPage</title><rect fill="#FFFFFF" height="788.7637" style="stroke:#181818;stroke-width:1;" width="10" x="298.813" y="112.7988"/></g><g><title>. CourseEnrollmentService</title><rect fill="#FFFFFF" height="759.4531" style="stroke:#181818;stroke-width:1;" width="10" x="830.5137" y="142.1094"/></g><g><title>. Student</title><rect fill="#FFFFFF" height="588.9004" style="stroke:#181818;stroke-width:1;" width="10" x="1265.7998" y="274.3516"/></g><g><title>. CoursePlan</title><rect fill="#FFFFFF" height="339.416" style="stroke:#181818;stroke-width:1;" width="10" x="1510.377" y="494.5254"/></g><g class="message" data-entity-1="part1" data-entity-2="part2" id="msg1"><polygon fill="#181818" points="286.813,108.7988,296.813,112.7988,286.813,116.7988,290.813,112.7988" style="stroke:#181818;stroke-width:1;"/><line style="stroke:#181818;stroke-width:1;" x1="44.5244" x2="292.813" y1="112.7988" y2="112.7988"/><text fill="#000000" font-family="sans-serif" font-size="13" lengthAdjust="spacing" textLength="235.2886" x="51.5244" y="108.0566">selectCourseOffering(courseOffering)</text></g><g class="message" data-entity-1="part2" data-entity-2="part3" id="msg2"><polygon fill="#181818" points="818.5137,138.1094,828.5137,142.1094,818.5137,146.1094,822.5137,142.1094" style="stroke:#181818;stroke-width:1;"/><line style="stroke:#181818;stroke-width:1;" x1="308.813" x2="824.5137" y1="142.1094" y2="142.1094"/><text fill="#000000" font-family="sans-serif" font-size="13" lengthAdjust="spacing" textLength="359.728" x="315.813" y="137.3672">enrollCourseOfferingForStudent(courseOffering, student)</text></g><g class="message" data-entity-1="part3" data-entity-2="part3" id="msg3"><line style="stroke:#181818;stroke-width:1;" x1="840.5137" x2="882.5137" y1="171.4199" y2="171.4199"/><line style="stroke:#181818;stroke-width:1;" x1="882.5137" x2="882.5137" y1="171.4199" y2="184.4199"/><line style="stroke:#181818;stroke-width:1;" x1="841.5137" x2="882.5137" y1="184.4199" y2="184.4199"/><polygon fill="#181818" points="851.5137,180.4199,841.5137,184.4199,851.5137,188.4199,847.5137,184.4199" style="stroke:#181818;stroke-width:1;"/><text fill="#000000" font-family="sans-serif" font-size="13" lengthAdjust="spacing" textLength="381.2593" x="847.5137" y="166.6777">checkIsWithinPeriodForSemester(courseOffering.semesterID)</text></g><path d="M212.0996,199.4199 L295.1094,199.4199 L295.1094,206.7305 L285.1094,216.7305 L212.0996,216.7305 L212.0996,199.4199" fill="#EEEEEE" style="stroke:#000000;stroke-width:1.5;"/><rect fill="none" height="46.6211" style="stroke:#000000;stroke-width:1.5;" width="729.0762" x="212.0996" y="199.4199"/><text fill="#000000" font-family="sans-serif" font-size="13" font-weight="bold" lengthAdjust="spacing" textLength="38.0098" x="227.0996" y="212.9883">break</text><text fill="#000000" font-family="sans-serif" font-size="11" font-weight="bold" lengthAdjust="spacing" textLength="189.5244" x="310.1094" y="212.0547">[not_within_period_for_semester]</text><g class="message" data-entity-1="part3" data-entity-2="part2" id="msg4"><line style="stroke:#181818;stroke-width:1;" x1="309.813" x2="319.813" y1="238.041" y2="234.041"/><line style="stroke:#181818;stroke-width:1;" x1="309.813" x2="319.813" y1="238.041" y2="242.041"/><line style="stroke:#181818;stroke-width:1;stroke-dasharray:2,2;" x1="308.813" x2="829.5137" y1="238.041" y2="238.041"/><text fill="#000000" font-family="sans-serif" font-size="13" lengthAdjust="spacing" textLength="349.2036" x="325.813" y="233.2988">message = "periode telah berakhir atau belum dimulai"</text></g><g class="message" data-entity-1="part3" data-entity-2="part4" id="msg5"><polygon fill="#181818" points="1253.7998,270.3516,1263.7998,274.3516,1253.7998,278.3516,1257.7998,274.3516" style="stroke:#181818;stroke-width:1;"/><line style="stroke:#181818;stroke-width:1;" x1="840.5137" x2="1259.7998" y1="274.3516" y2="274.3516"/><text fill="#000000" font-family="sans-serif" font-size="13" lengthAdjust="spacing" textLength="147.3735" x="847.5137" y="269.6094">getAllEnrolledCourses()</text></g><g class="message" data-entity-1="part4" data-entity-2="part3" id="msg6"><line style="stroke:#181818;stroke-width:1;" x1="841.5137" x2="851.5137" y1="303.6621" y2="299.6621"/><line style="stroke:#181818;stroke-width:1;" x1="841.5137" x2="851.5137" y1="303.6621" y2="307.6621"/><line style="stroke:#181818;stroke-width:1;stroke-dasharray:2,2;" x1="840.5137" x2="1264.7998" y1="303.6621" y2="303.6621"/><text fill="#000000" font-family="sans-serif" font-size="13" lengthAdjust="spacing" textLength="102.4194" x="857.5137" y="298.9199">enrolledCourses</text></g><g class="message" data-entity-1="part3" data-entity-2="part3" id="msg7"><line style="stroke:#181818;stroke-width:1;" x1="840.5137" x2="882.5137" y1="332.9727" y2="332.9727"/><line style="stroke:#181818;stroke-width:1;" x1="882.5137" x2="882.5137" y1="332.9727" y2="345.9727"/><line style="stroke:#181818;stroke-width:1;" x1="841.5137" x2="882.5137" y1="345.9727" y2="345.9727"/><polygon fill="#181818" points="851.5137,341.9727,841.5137,345.9727,851.5137,349.9727,847.5137,345.9727" style="stroke:#181818;stroke-width:1;"/><text fill="#000000" font-family="sans-serif" font-size="13" lengthAdjust="spacing" textLength="370.2017" x="847.5137" y="328.2305">checkPrerequisite(courseOffering.course, enrolledCourses)</text></g><path d="M212.0996,360.9727 L295.1094,360.9727 L295.1094,368.2832 L285.1094,378.2832 L212.0996,378.2832 L212.0996,360.9727" fill="#EEEEEE" style="stroke:#000000;stroke-width:1.5;"/><rect fill="none" height="46.6211" style="stroke:#000000;stroke-width:1.5;" width="729.0762" x="212.0996" y="360.9727"/><text fill="#000000" font-family="sans-serif" font-size="13" font-weight="bold" lengthAdjust="spacing" textLength="38.0098" x="227.0996" y="374.541">break</text><text fill="#000000" font-family="sans-serif" font-size="11" font-weight="bold" lengthAdjust="spacing" textLength="261.4756" x="310.1094" y="373.6074">[prerequisite_not_found_on_enrolled_courses]</text><g class="message" data-entity-1="part3" data-entity-2="part2" id="msg8"><line style="stroke:#181818;stroke-width:1;" x1="309.813" x2="319.813" y1="399.5938" y2="395.5938"/><line style="stroke:#181818;stroke-width:1;" x1="309.813" x2="319.813" y1="399.5938" y2="403.5938"/><line style="stroke:#181818;stroke-width:1;stroke-dasharray:2,2;" x1="308.813" x2="829.5137" y1="399.5938" y2="399.5938"/><text fill="#000000" font-family="sans-serif" font-size="13" lengthAdjust="spacing" textLength="497.7007" x="325.813" y="394.8516">message = "MK prasyarat belum diambil, silakan mengambil prasyarat dahulu"</text></g><g class="message" data-entity-1="part3" data-entity-2="part4" id="msg9"><polygon fill="#181818" points="1253.7998,431.9043,1263.7998,435.9043,1253.7998,439.9043,1257.7998,435.9043" style="stroke:#181818;stroke-width:1;"/><line style="stroke:#181818;stroke-width:1;" x1="840.5137" x2="1259.7998" y1="435.9043" y2="435.9043"/><text fill="#000000" font-family="sans-serif" font-size="13" lengthAdjust="spacing" textLength="169.876" x="847.5137" y="431.1621">getCoursePlan(semesterID)</text></g><g class="message" data-entity-1="part4" data-entity-2="part3" id="msg10"><line style="stroke:#181818;stroke-width:1;" x1="841.5137" x2="851.5137" y1="465.2148" y2="461.2148"/><line style="stroke:#181818;stroke-width:1;" x1="841.5137" x2="851.5137" y1="465.2148" y2="469.2148"/><line style="stroke:#181818;stroke-width:1;stroke-dasharray:2,2;" x1="840.5137" x2="1264.7998" y1="465.2148" y2="465.2148"/><text fill="#000000" font-family="sans-serif" font-size="13" lengthAdjust="spacing" textLength="125.7661" x="857.5137" y="460.4727">coursePlanSemester</text></g><g class="message" data-entity-1="part3" data-entity-2="part5" id="msg11"><polygon fill="#181818" points="1498.377,490.5254,1508.377,494.5254,1498.377,498.5254,1502.377,494.5254" style="stroke:#181818;stroke-width:1;"/><line style="stroke:#181818;stroke-width:1;" x1="840.5137" x2="1504.377" y1="494.5254" y2="494.5254"/><text fill="#000000" font-family="sans-serif" font-size="13" lengthAdjust="spacing" textLength="160.9194" x="847.5137" y="489.7832">getMaximumCreditLimit()</text></g><g class="message" data-entity-1="part5" data-entity-2="part3" id="msg12"><line style="stroke:#181818;stroke-width:1;" x1="841.5137" x2="851.5137" y1="523.8359" y2="519.8359"/><line style="stroke:#181818;stroke-width:1;" x1="841.5137" x2="851.5137" y1="523.8359" y2="527.8359"/><line style="stroke:#181818;stroke-width:1;stroke-dasharray:2,2;" x1="840.5137" x2="1509.377" y1="523.8359" y2="523.8359"/><text fill="#000000" font-family="sans-serif" font-size="13" lengthAdjust="spacing" textLength="133.1929" x="857.5137" y="519.0938">maximumCreditLimit</text></g><g class="message" data-entity-1="part3" data-entity-2="part5" id="msg13"><polygon fill="#181818" points="1498.377,549.1465,1508.377,553.1465,1498.377,557.1465,1502.377,553.1465" style="stroke:#181818;stroke-width:1;"/><line style="stroke:#181818;stroke-width:1;" x1="840.5137" x2="1504.377" y1="553.1465" y2="553.1465"/><text fill="#000000" font-family="sans-serif" font-size="13" lengthAdjust="spacing" textLength="99.0298" x="847.5137" y="548.4043">getTotalCredit()</text></g><g class="message" data-entity-1="part5" data-entity-2="part3" id="msg14"><line style="stroke:#181818;stroke-width:1;" x1="841.5137" x2="851.5137" y1="582.457" y2="578.457"/><line style="stroke:#181818;stroke-width:1;" x1="841.5137" x2="851.5137" y1="582.457" y2="586.457"/><line style="stroke:#181818;stroke-width:1;stroke-dasharray:2,2;" x1="840.5137" x2="1509.377" y1="582.457" y2="582.457"/><text fill="#000000" font-family="sans-serif" font-size="13" lengthAdjust="spacing" textLength="67.0059" x="857.5137" y="577.7148">totalCredit</text></g><path d="M212.0996,597.457 L295.1094,597.457 L295.1094,604.7676 L285.1094,614.7676 L212.0996,614.7676 L212.0996,597.457" fill="#EEEEEE" style="stroke:#000000;stroke-width:1.5;"/><rect fill="none" height="46.6211" style="stroke:#000000;stroke-width:1.5;" width="729.0762" x="212.0996" y="597.457"/><text fill="#000000" font-family="sans-serif" font-size="13" font-weight="bold" lengthAdjust="spacing" textLength="38.0098" x="227.0996" y="611.0254">break</text><text fill="#000000" font-family="sans-serif" font-size="11" font-weight="bold" lengthAdjust="spacing" textLength="381.0737" x="310.1094" y="610.0918">[courseOffering.course.credit + totalCredit &gt; maximumCreditLimit]</text><g class="message" data-entity-1="part3" data-entity-2="part2" id="msg15"><line style="stroke:#181818;stroke-width:1;" x1="309.813" x2="319.813" y1="636.0781" y2="632.0781"/><line style="stroke:#181818;stroke-width:1;" x1="309.813" x2="319.813" y1="636.0781" y2="640.0781"/><line style="stroke:#181818;stroke-width:1;stroke-dasharray:2,2;" x1="308.813" x2="829.5137" y1="636.0781" y2="636.0781"/><text fill="#000000" font-family="sans-serif" font-size="13" lengthAdjust="spacing" textLength="428.8413" x="325.813" y="631.3359">message = "SKS yang telah diambil telah mencapai batas maksimal"</text></g><g class="message" data-entity-1="part3" data-entity-2="part3" id="msg16"><line style="stroke:#181818;stroke-width:1;" x1="840.5137" x2="882.5137" y1="672.3887" y2="672.3887"/><line style="stroke:#181818;stroke-width:1;" x1="882.5137" x2="882.5137" y1="672.3887" y2="685.3887"/><line style="stroke:#181818;stroke-width:1;" x1="841.5137" x2="882.5137" y1="685.3887" y2="685.3887"/><polygon fill="#181818" points="851.5137,681.3887,841.5137,685.3887,851.5137,689.3887,847.5137,685.3887" style="stroke:#181818;stroke-width:1;"/><text fill="#000000" font-family="sans-serif" font-size="13" lengthAdjust="spacing" textLength="401.2861" x="847.5137" y="667.6465">checkAnyScheduleOverlap(courseOffering, coursePlanSemester)</text></g><path d="M212.0996,700.3887 L295.1094,700.3887 L295.1094,707.6992 L285.1094,717.6992 L212.0996,717.6992 L212.0996,700.3887" fill="#EEEEEE" style="stroke:#000000;stroke-width:1.5;"/><rect fill="none" height="46.6211" style="stroke:#000000;stroke-width:1.5;" width="729.0762" x="212.0996" y="700.3887"/><text fill="#000000" font-family="sans-serif" font-size="13" font-weight="bold" lengthAdjust="spacing" textLength="38.0098" x="227.0996" y="713.957">break</text><text fill="#000000" font-family="sans-serif" font-size="11" font-weight="bold" lengthAdjust="spacing" textLength="114.9092" x="310.1094" y="713.0234">[any_overlap_found]</text><g class="message" data-entity-1="part3" data-entity-2="part2" id="msg17"><line style="stroke:#181818;stroke-width:1;" x1="309.813" x2="319.813" y1="739.0098" y2="735.0098"/><line style="stroke:#181818;stroke-width:1;" x1="309.813" x2="319.813" y1="739.0098" y2="743.0098"/><line style="stroke:#181818;stroke-width:1;stroke-dasharray:2,2;" x1="308.813" x2="829.5137" y1="739.0098" y2="739.0098"/><text fill="#000000" font-family="sans-serif" font-size="13" lengthAdjust="spacing" textLength="421.8208" x="325.813" y="734.2676">message = "ada jadwal yang konflik, silakan pilih jadwal yang lain"</text></g><g class="message" data-entity-1="part3" data-entity-2="part4" id="msg18"><polygon fill="#181818" points="1253.7998,771.3203,1263.7998,775.3203,1253.7998,779.3203,1257.7998,775.3203" style="stroke:#181818;stroke-width:1;"/><line style="stroke:#181818;stroke-width:1;" x1="840.5137" x2="1259.7998" y1="775.3203" y2="775.3203"/><text fill="#000000" font-family="sans-serif" font-size="13" lengthAdjust="spacing" textLength="138.6392" x="847.5137" y="770.5781">enroll(courseOffering)</text></g><g class="message" data-entity-1="part4" data-entity-2="part5" id="msg19"><polygon fill="#181818" points="1498.377,800.6309,1508.377,804.6309,1498.377,808.6309,1502.377,804.6309" style="stroke:#181818;stroke-width:1;"/><line style="stroke:#181818;stroke-width:1;" x1="1275.7998" x2="1504.377" y1="804.6309" y2="804.6309"/><text fill="#000000" font-family="sans-serif" font-size="13" lengthAdjust="spacing" textLength="210.5771" x="1282.7998" y="799.8887">insert(courseOffering, student.id)</text></g><g class="message" data-entity-1="part5" data-entity-2="part4" id="msg20"><line style="stroke:#181818;stroke-width:1;" x1="1276.7998" x2="1286.7998" y1="833.9414" y2="829.9414"/><line style="stroke:#181818;stroke-width:1;" x1="1276.7998" x2="1286.7998" y1="833.9414" y2="837.9414"/><line style="stroke:#181818;stroke-width:1;stroke-dasharray:2,2;" x1="1275.7998" x2="1514.377" y1="833.9414" y2="833.9414"/><text fill="#000000" font-family="sans-serif" font-size="13" lengthAdjust="spacing" textLength="15.5835" x="1292.7998" y="829.1992">ok</text></g><g class="message" data-entity-1="part4" data-entity-2="part3" id="msg21"><line style="stroke:#181818;stroke-width:1;" x1="841.5137" x2="851.5137" y1="863.252" y2="859.252"/><line style="stroke:#181818;stroke-width:1;" x1="841.5137" x2="851.5137" y1="863.252" y2="867.252"/><line style="stroke:#181818;stroke-width:1;stroke-dasharray:2,2;" x1="840.5137" x2="1269.7998" y1="863.252" y2="863.252"/><text fill="#000000" font-family="sans-serif" font-size="13" lengthAdjust="spacing" textLength="15.5835" x="857.5137" y="858.5098">ok</text></g><g class="message" data-entity-1="part3" data-entity-2="part2" id="msg22"><line style="stroke:#181818;stroke-width:1;" x1="309.813" x2="319.813" y1="892.5625" y2="888.5625"/><line style="stroke:#181818;stroke-width:1;" x1="309.813" x2="319.813" y1="892.5625" y2="896.5625"/><line style="stroke:#181818;stroke-width:1;stroke-dasharray:2,2;" x1="308.813" x2="829.5137" y1="892.5625" y2="892.5625"/><text fill="#000000" font-family="sans-serif" font-size="13" lengthAdjust="spacing" textLength="287.5044" x="325.813" y="887.8203">message = "MK telah ditambahkan pada KRS"</text></g><?plantuml-src hLNBRjim4BphAmYT73Jn1mIeWI1DWC0rObG5UXJMujhQYY9LahBhlo-jXqrPKXp3rKcaTdQ7dDaL95Pf5YuW1KDc1o43mumjEKeR5A0j9LI0j2nyPC-gr0OZ59XOKd896wp2a_x-CFH5QYL4xb97gBUK-F3Uj_CKKKtA9_Wond4fG7gv3yj3RD3WsCDiY3HxPAPQrqdUrslK93UJfBEy2y0Xjc1nyE13UO_bUeTq9R7QwvPyLRevxbdn-_ReFHRz-nih-I6R9CKaUpE_oAOabwwcuWSocAEngC_OJ4sp__RjBWXM6Y5ZKjbuLw7ZeeB7QwNZDZ1WxXabzZ0RqyMXpU7jAmlhhCWi2aZP2ZLaAMa65agt4cNEEEMb00e3b3puw1fEDd8bDcYVXAZZaDTwc8btpvxfFA17UbpTOxxW1bMM6ZN-AScGnNCXwkNzURcZAeM7ZGyIhLKfUQnat2BYf65ukqABkQi7PWyQx54Io5Sad7r9G0RIXSjDjUM5SaXBKLulswdd9xuXFo_IQKgqHhyiKpDJQWOB-Eiybpzhv6I_KqvsqclGTWXruHUOvRt4LpBxgIo86kueNLNRdg2jZGPTDqsg6FR5Hx3P4FVRlHND8xO7kMdQl_5LitBf4YY0sCfD0-C8P8Po49STTQ7pdkG-SY-y5FY-HIsWw8tbleMElGTo7wiQLhVTVxW6uC1-0z-1g6yZKt8jA3lrLq62qaw8cuZoojwgPqFl_-StLjzq90tgqV_MbFYW3JjrLHPm76cVptTrDuitlOERnrjhFklS1sbrtmT5vZ-YCFW7?></g></svg>